<svg width="15" height="15" viewBox="0 0 15 15" fill="none" xmlns="http://www.w3.org/2000/svg">
<path d="M14.1429 6.64286H8.35714V0.857143C8.35714 0.383143 7.974 0 7.5 0C7.026 0 6.64286 0.383143 6.64286 0.857143V6.64286H0.857143C0.383143 6.64286 0 7.026 0 7.5C0 7.974 0.383143 8.35714 0.857143 8.35714H6.64286V14.1429C6.64286 14.6169 7.026 15 7.5 15C7.974 15 8.35714 14.6169 8.35714 14.1429V8.35714H14.1429C14.6169 8.35714 15 7.974 15 7.5C15 7.026 14.6169 6.64286 14.1429 6.64286Z" fill="#0F1316"/>
</svg>
