<svg width="31" height="34" viewBox="0 0 31 34" fill="none" xmlns="http://www.w3.org/2000/svg">
<path d="M15.8479 11.352L15.56 11.2098C13.4416 10.1638 10.3826 9.15069 8.37893 9.15L15.8479 11.352ZM15.8479 11.352L16.1358 11.2097M15.8479 11.352L16.1358 11.2097M16.1358 11.2097C18.249 10.1653 21.3716 9.15 23.3771 9.15C25.7957 9.15 27.4784 10.3788 28.576 12.2401C29.6897 14.1287 30.1845 16.656 30.1358 19.1121L30.1356 19.1228L30.1357 19.1335C30.1778 22.3655 29.1535 25.9575 27.3464 28.7274C25.5365 31.5015 23.0169 33.35 20.09 33.35C19.1309 33.35 18.4113 33.116 17.7742 32.8642C17.6761 32.8255 17.5736 32.7835 17.4695 32.741C17.2522 32.6521 17.0283 32.5606 16.825 32.4897C16.5095 32.3798 16.1615 32.2875 15.7875 32.2875C15.4135 32.2875 15.0654 32.3798 14.75 32.4897C14.5467 32.5606 14.3228 32.6521 14.1055 32.741C14.0014 32.7835 13.8988 32.8255 13.8007 32.8642C13.1636 33.116 12.4441 33.35 11.485 33.35C8.59249 33.35 6.08497 31.4864 4.27091 28.6976C2.46086 25.9149 1.42211 22.3205 1.43927 19.1285L0.789281 19.125M16.1358 11.2097L0.789281 19.125M0.789281 19.125L1.43927 19.1285C1.45266 16.6282 1.97726 14.0989 3.11155 12.2183C4.22825 10.3669 5.92393 9.15007 8.37873 9.15L0.789281 19.125ZM21.6515 0.65V2.125C21.6515 4.69245 19.5433 6.7875 16.9234 6.7875H15.4222V5.3125C15.4222 2.74505 17.5304 0.65 20.1503 0.65H21.6515Z" stroke="#05CD99" stroke-width="1.3"/>
<ellipse cx="11.0912" cy="20.4327" rx="2.06044" ry="4.08654" fill="#05CD99"/>
<ellipse cx="19.333" cy="20.4327" rx="2.06044" ry="4.08654" fill="#05CD99"/>
<path d="M18.3565 3.08087C17.8688 3.47245 17.2824 3.86957 17.0036 4.42255" stroke="#05CD99" stroke-linecap="round"/>
</svg>
