<svg width="24" height="16" viewBox="0 0 24 16" fill="none" xmlns="http://www.w3.org/2000/svg">
<path d="M16.5904 7.76562C18.5108 7.76562 20.133 6.04975 20.133 3.82974C20.133 1.6628 18.502 0 16.5904 0C14.6876 0 13.0479 1.68933 13.0566 3.84743C13.0566 6.04975 14.6701 7.76562 16.5904 7.76562ZM6.45378 7.96904C8.12861 7.96904 9.54037 6.46545 9.54037 4.53731C9.54037 2.64456 8.11107 1.20287 6.45378 1.20287C4.79649 1.20287 3.36719 2.67109 3.37596 4.555C3.37596 6.46545 4.78772 7.96904 6.45378 7.96904ZM1.62221 16H8.19876C7.2605 14.6468 8.26891 11.9757 10.2506 10.4013C9.28608 9.77336 8.03215 9.31343 6.45378 9.31343C2.53416 9.31343 0 12.2233 0 14.6202C0 15.4959 0.438436 16 1.62221 16ZM11.1275 15.9912H22.0533C23.5002 15.9912 24 15.5489 24 14.7352C24 12.4621 21.1326 9.33112 16.5904 9.33112C12.0395 9.33112 9.18085 12.4621 9.18085 14.7352C9.18085 15.5489 9.68067 15.9912 11.1275 15.9912Z" fill="#CACACA"/>
</svg>
