<svg width="15" height="15" viewBox="0 0 15 15" fill="none" xmlns="http://www.w3.org/2000/svg">
<path d="M5.93949 13.2279L0.58418 2.52349C0.166149 1.68791 -0.0428663 1.27013 0.007339 0.930519C0.0511785 0.633971 0.215304 0.368565 0.461093 0.196757C0.742573 0 1.20995 0 2.14469 0H12.8553C13.7901 0 14.2574 0 14.5389 0.196757C14.7847 0.368565 14.9488 0.633971 14.9927 0.930519C15.0429 1.27013 14.8339 1.68791 14.4158 2.52349L9.06051 13.2279C8.55825 14.2318 8.30711 14.7338 7.96728 14.8949C7.67155 15.035 7.32845 15.035 7.03272 14.8949C6.69289 14.7338 6.44175 14.2318 5.93949 13.2279Z" fill="#05CD99"/>
</svg>
