<svg width="27" height="36" viewBox="0 0 27 36" fill="none" xmlns="http://www.w3.org/2000/svg">
<g clip-path="url(#clip0_46_91)">
<path d="M6.41773 0.0453682C6.0595 0.122696 5.60574 0.432014 5.3908 0.767113C4.96093 1.46308 5.15198 1.97861 6.75207 4.53049C7.2536 5.32957 7.97006 6.64417 8.3044 7.44325C8.9731 9.0414 9.37909 11.9799 8.90145 11.9799C8.75816 11.9799 8.63875 11.8768 8.63875 11.7737C8.63875 11.3097 6.60878 9.40227 5.84456 9.11873C4.62658 8.7063 4.43552 9.0414 4.26835 11.8253C4.14894 13.7843 3.934 14.7896 3.14589 17.0321C1.88015 20.6409 1.56968 22.8577 1.92791 25.6415C2.23838 28.2192 3.0026 29.8173 4.69822 31.5444C6.96701 33.8643 9.78509 34.9984 13.4151 34.9984C17.5467 35.05 20.4126 33.8385 23.0396 31.0288C25.6666 28.1934 26.7891 24.9713 26.7891 20.2027C26.7891 10.6653 20.9141 2.85501 11.9822 0.560898C10.3105 0.148472 7.5163 -0.109291 6.41773 0.0453682ZM15.6839 16.8259C21.2723 21.3884 20.126 30.2813 13.9406 30.2813C11.4807 30.2813 9.9045 29.0956 9.33133 26.8272C8.9731 25.4611 9.25968 24.2754 10.5732 21.6462L11.5762 19.6356L12.0778 20.28C12.3643 20.6409 12.6987 21.1564 12.842 21.4142C13.0092 21.6719 13.2002 21.8266 13.2719 21.7493C13.5107 21.4915 13.8928 18.7076 13.8928 17.1868C13.8928 15.5629 14.0838 15.5113 15.6839 16.8259Z" fill="#EB4B62"/>
</g>
<defs>
<clipPath id="clip0_46_91">
<rect width="26" height="36" fill="white" transform="translate(0.789062)"/>
</clipPath>
</defs>
</svg>
