<svg width="39" height="35" viewBox="0 0 39 35" fill="none" xmlns="http://www.w3.org/2000/svg">
<rect width="39" height="35" fill="#1E1E1E"/>
<g id="Dashboard 1" clip-path="url(#clip0_0_1)">
<rect width="1440" height="1024" transform="translate(-43 -46)" fill="#1C1C21"/>
<g id="SideBar #2">
<rect width="290" height="1024" transform="translate(-43 -46)" fill="#2D2C32"/>
<g id="Logo">
<g id="Icon">
<rect id="Rectangle 29" x="-23" y="-11" width="250" height="60.307" rx="10" fill="url(#paint0_linear_0_1)"/>
<g id="2">
<g id="1-2">
<path id="path1" d="M7.52894 11.0401C7.58781 11.4989 7.65631 11.9566 7.71589 12.4157C7.77796 12.892 7.80401 13.3758 7.89997 13.8449C8.08014 14.7272 8.28742 15.6045 8.50647 16.4782C8.70554 17.2727 9.02699 18.0258 9.39195 18.7558C9.73195 19.4357 10.1372 20.079 10.6435 20.6534C11.0716 21.1396 11.5414 21.586 12.1265 21.8664C12.4508 22.0212 12.8269 22.0729 13.1843 22.1518C14.0484 22.3398 14.915 22.5167 15.7812 22.6966C16.3856 22.8217 16.9904 22.9451 17.5957 23.0669C17.7505 23.0979 17.9079 23.1168 18.0641 23.1414C18.0681 23.124 18.0723 23.1058 18.0763 23.0886C18.017 23.053 17.9571 23.0173 17.8979 22.9795C17.2225 22.5542 16.524 22.1611 15.8779 21.6951C14.9774 21.0462 14.1519 20.3037 13.3702 19.5121C13.0213 19.1596 12.6777 18.81 12.5447 18.3091C12.402 17.7668 12.235 17.2302 12.1009 16.6855C11.9721 16.1621 11.8554 15.6341 11.763 15.1032C11.6535 14.4721 11.5668 13.8364 11.4854 13.2006C11.3071 11.8092 11.1344 10.42 11.1808 9.01258C11.2029 8.35221 11.2521 7.69755 11.4523 7.06251C11.6795 6.34185 12.0912 5.75569 12.7113 5.31902C13.3313 4.88234 14.0438 4.6294 14.7744 4.44281C15.6324 4.2234 16.5098 4.08897 17.3941 4.04145C18.5736 3.97795 19.7566 3.94512 20.9382 3.95226C22.4491 3.96154 23.9507 4.09497 25.4149 4.50738C26.1452 4.71288 26.8334 4.99936 27.4181 5.49668C27.9173 5.91611 28.2649 6.48795 28.4074 7.12423C28.5091 7.56198 28.5968 8.01186 28.6111 8.45853C28.635 9.21665 28.615 9.97726 28.5797 10.7354C28.5236 11.9925 28.3878 13.2447 28.173 14.4846C28.0353 15.272 27.8904 16.0579 27.7449 16.8435C27.7083 17.0415 27.6606 17.2373 27.6022 17.43C27.4833 17.8196 27.3572 18.2069 27.224 18.592C27.1787 18.7237 27.1295 18.8667 27.0399 18.9677C26.7859 19.2552 26.5262 19.5421 26.2393 19.7961C25.6218 20.3426 25.0042 20.8924 24.3514 21.3951C23.8002 21.8161 23.2047 22.1835 22.62 22.5588C22.3574 22.7269 22.0688 22.8539 21.7919 22.9994L21.8037 23.0544C21.8634 23.0527 21.923 23.0474 21.9821 23.0387C22.2261 22.9884 22.4684 22.9317 22.7124 22.8814C23.3588 22.7515 24.0064 22.6277 24.6521 22.4961C25.4951 22.3237 26.3389 22.1543 27.1787 21.9663C27.4159 21.9172 27.6436 21.8301 27.853 21.7083C28.5779 21.2652 29.1562 20.6644 29.6418 19.9695C30.1293 19.2791 30.5287 18.5305 30.8305 17.7411C31.0446 17.1778 31.2708 16.6148 31.4177 16.0329C31.6339 15.1767 31.8259 14.3109 31.9529 13.4382C32.1645 11.993 32.3343 10.5413 32.488 9.08892C32.6029 8.00116 32.5408 6.91481 32.2608 5.85273C31.9088 4.5163 31.1925 3.41188 30.112 2.53948C29.1056 1.72535 27.9522 1.20626 26.7228 0.84379C26.3143 0.723561 25.8983 0.625094 25.4809 0.539828C24.8894 0.419599 24.2968 0.292591 23.6971 0.218741C22.955 0.129194 22.2076 0.0710413 21.4609 0.0403602C20.6485 0.00504108 19.8333 -0.0142233 19.021 0.0125339C17.9239 0.0482101 16.8255 0.0967293 15.742 0.297944C15.0031 0.434939 14.2582 0.549818 13.53 0.728199C12.794 0.912899 12.079 1.17292 11.3962 1.50416C10.5375 1.91479 9.75229 2.43174 9.09406 3.11958C8.46272 3.77288 7.98709 4.56034 7.70268 5.42319C7.48863 6.07 7.33058 6.72288 7.32345 7.40429C7.31631 8.08571 7.30561 8.75785 7.34093 9.43249C7.36911 9.97013 7.46151 10.5046 7.52894 11.0401Z" fill="#CACACA"/>
<path id="path2" d="M38.2498 32.3374C38.197 27.9475 38.1459 23.5576 38.0964 19.1675H38.1007C38.0826 17.9138 38.0646 16.6604 38.0465 15.4072C38.0072 12.2827 37.9688 9.15805 37.9312 6.03329C37.9341 5.93244 37.9306 5.83152 37.9209 5.73111C37.8834 5.46853 37.6055 5.28194 37.4289 5.41359C37.2727 5.52989 37.1125 5.67117 37.0215 5.83814C36.8209 6.20981 36.6434 6.59346 36.4899 6.98691C36.3087 7.43283 36.1529 7.88867 36.0233 8.35224C35.8663 8.93983 35.7379 9.53705 35.6308 10.1361C35.5263 10.7194 35.4464 11.3084 35.384 11.8977C35.3058 12.6352 35.2391 13.3747 35.1992 14.115C35.1464 15.0936 35.1167 16.0736 35.0943 17.0533C35.0878 17.3309 35.1399 17.6138 35.3333 17.8361C35.5148 18.0504 35.7076 18.2549 35.9109 18.4486C36.166 18.6859 36.3747 18.9624 36.4817 19.2827C36.5692 19.5658 36.6085 19.8615 36.598 20.1575C36.5441 22.5503 36.4703 24.9431 36.4118 27.3359C36.3711 28.9988 36.3447 30.662 36.3147 32.3252C36.3134 32.4378 36.3254 32.5501 36.3504 32.6599C36.4 32.8836 36.5645 33.0416 36.795 33.0523C37.116 33.0677 37.4371 33.0652 37.7561 33.0523C37.8467 33.0484 37.9427 32.991 38.0222 32.9374C38.2356 32.7937 38.2527 32.5725 38.2498 32.3374Z" fill="#CACACA"/>
<path id="path3" d="M24.2696 13.3786C25.239 12.5524 26.2104 11.7282 27.1836 10.9063C27.3345 10.7785 27.3392 10.715 27.1715 10.6119C26.6482 10.2909 26.122 9.97405 25.5928 9.66152C24.9596 9.28799 24.271 9.03612 23.5764 8.81279C23.0475 8.64115 22.5061 8.51077 21.9571 8.42284C21.2724 8.31582 20.5778 8.27514 19.8878 8.20593C19.1936 8.27729 18.5029 8.30904 17.8265 8.42534C17.2235 8.5288 16.6288 8.70183 16.0427 8.88699C15.5278 9.05039 15.0109 9.2327 14.5328 9.47957C13.8728 9.821 13.2485 10.2288 12.6102 10.6134C12.4361 10.7186 12.4415 10.7714 12.5931 10.9009C12.9374 11.1945 13.2774 11.4935 13.6234 11.785C14.2917 12.3479 14.9667 12.9034 15.6295 13.4725C15.7651 13.5888 15.8768 13.5891 16.0291 13.5285C16.9185 13.1717 17.8514 12.9933 18.7994 12.912C19.7769 12.8281 20.7555 12.8406 21.7316 12.9883C22.398 13.0889 23.0612 13.2045 23.6738 13.4839C23.9374 13.6027 24.088 13.5324 24.2696 13.3786Z" fill="#CACACA"/>
<path id="path4" d="M4.30595 11.6705C4.24815 10.907 4.20249 10.1425 4.15147 9.37828C4.14362 9.25698 4.07762 9.1999 3.95846 9.19419C3.79613 9.18777 3.75725 9.23379 3.75939 9.44963C3.77342 10.7863 3.78829 12.1231 3.80398 13.46C3.80398 13.5888 3.78151 13.6869 3.6256 13.6883C3.4829 13.6883 3.41476 13.6287 3.41155 13.4743C3.39371 12.6309 3.37087 11.7875 3.34305 10.9441C3.32521 10.4161 3.29274 9.8881 3.27169 9.35973C3.2667 9.22595 3.20605 9.18634 3.08118 9.19348C2.92992 9.2024 2.93848 9.31228 2.93491 9.41111C2.91315 10.2367 2.89067 11.0622 2.87497 11.8881C2.86499 12.4232 2.86713 12.9584 2.86142 13.4935C2.86142 13.6644 2.78008 13.7254 2.61168 13.7037C2.45863 13.684 2.46898 13.5731 2.46684 13.4639C2.44305 12.1332 2.41927 10.8025 2.39549 9.47175C2.39549 9.43037 2.39549 9.38863 2.3912 9.34724C2.383 9.24022 2.33056 9.19526 2.21782 9.19348C2.06013 9.19134 2.04729 9.29302 2.043 9.40468C2.02659 9.8328 2.01149 10.2603 1.9977 10.6872C1.96773 11.6195 1.93455 12.5517 1.91493 13.4843C1.91136 13.643 1.80183 13.7133 1.65485 13.6865C1.52392 13.6626 1.51785 13.5627 1.51928 13.4543C1.53569 12.2066 1.55079 10.9589 1.56459 9.71114C1.56459 9.60411 1.57244 9.49708 1.56958 9.39006C1.56566 9.2445 1.49288 9.17957 1.34125 9.19455C1.20533 9.20775 1.20176 9.3055 1.19498 9.39933C1.16144 9.87311 1.13576 10.3472 1.0983 10.8207C1.02695 11.7126 0.949171 12.6066 0.878176 13.4996C0.835364 14.0897 0.791126 14.6819 0.756163 15.2749C0.743183 15.4636 0.75072 15.6532 0.778639 15.8403C0.843927 16.2485 1.15395 16.5 1.43223 16.7565C1.94454 17.2292 2.18535 17.7989 2.15324 18.4939C2.12542 19.0933 2.10496 19.693 2.09188 20.2931C2.026 23.2326 1.96154 26.1722 1.89852 29.1119C1.87461 30.1822 1.85142 31.2525 1.80504 32.3188C1.78899 32.6956 2.10294 33.0224 2.47183 32.9984C2.60776 32.9895 2.74511 32.9984 2.88175 32.9967C3.26349 32.9924 3.52178 32.7366 3.51394 32.3524C3.49467 31.4319 3.46542 30.5118 3.44544 29.591C3.41404 28.1597 3.38491 26.7281 3.35803 25.2963H3.33199C3.33199 24.8682 3.34091 24.4401 3.33199 24.012C3.28703 22.129 3.23067 20.2467 3.19428 18.3637C3.18928 18.1036 3.24886 17.8343 3.32307 17.5824C3.44972 17.1543 3.78293 16.8649 4.09439 16.5695C4.37302 16.3055 4.59814 16.013 4.59136 15.6113C4.58458 15.2021 4.55782 14.7925 4.52678 14.384C4.45615 13.4807 4.37409 12.5759 4.30595 11.6705Z" fill="#CACACA"/>
<path id="path5" d="M17.2992 34.1565C16.9738 33.4541 16.6486 32.7514 16.3235 32.0484C16.1158 31.6003 15.9057 31.1536 15.6998 30.7051C15.5571 30.393 15.4144 30.1283 15.0131 30.0305C14.5022 29.9064 14.0141 29.6844 13.525 29.4811C13.0898 29.2999 12.6595 29.1022 12.2407 28.8835C11.33 28.404 10.4648 27.8427 9.65556 27.2067C8.88544 26.6005 8.16093 25.9385 7.48788 25.226C7.44827 25.1846 7.42687 25.1257 7.39654 25.0751L7.302 25.1332C7.36943 25.3309 7.42116 25.536 7.5075 25.7255C7.84071 26.4568 8.15752 27.1975 8.53069 27.9081C9.21925 29.2239 10.1177 30.4187 11.1907 31.4454C11.794 32.023 12.4358 32.5571 13.1554 32.9795C13.7137 33.3077 14.3006 33.5906 14.8893 33.8632C15.6624 34.22 16.489 34.4155 17.3213 34.5828C17.4465 34.6078 17.4779 34.55 17.4358 34.4447C17.3977 34.3463 17.3441 34.2531 17.2992 34.1565Z" fill="#CACACA"/>
<path id="path6" d="M32.3816 25.1479C32.3103 25.2192 32.2389 25.2906 32.1697 25.3619C31.3952 26.1675 30.5643 26.911 29.6563 27.5624C29.2282 27.8696 28.7937 28.1728 28.3363 28.434C27.7298 28.7797 27.108 29.0958 26.4812 29.3973C26.1101 29.5756 25.7177 29.713 25.3295 29.8539C25.042 29.9581 24.7437 30.0323 24.4547 30.1347C24.385 30.1669 24.329 30.223 24.2967 30.2927C24.0962 30.6987 23.9007 31.1073 23.7102 31.5186C23.2583 32.489 22.8091 33.4607 22.3627 34.4337C22.3494 34.4761 22.3419 34.5202 22.3402 34.5646C22.3845 34.5703 22.4326 34.5899 22.4726 34.5796C23.0791 34.4201 23.6931 34.2792 24.2903 34.0887C25.3962 33.7362 26.402 33.1793 27.3388 32.4993C28.0687 31.9695 28.7473 31.378 29.3224 30.6827C29.7612 30.1522 30.1818 29.6031 30.5711 29.0348C30.8971 28.5506 31.1939 28.0474 31.4598 27.5278C31.7302 27.0084 31.9592 26.4665 32.1933 25.9295C32.3035 25.6777 32.3863 25.4144 32.4812 25.1561L32.4295 25.1307C32.4123 25.1361 32.3923 25.1372 32.3816 25.1479Z" fill="#CACACA"/>
<path id="path7" d="M32.4574 16.1407C32.0069 17.2607 31.5581 18.381 31.111 19.5017C31.066 19.6134 31.0689 19.7112 31.1531 19.8153C31.2633 19.952 31.3504 20.1075 31.4485 20.2545C31.9408 20.9918 32.4338 21.7291 32.9276 22.4664C32.9583 22.5121 33.0118 22.5424 33.0664 22.5906C33.4028 20.8271 33.1256 17.0718 32.5698 15.9577C32.528 16.0159 32.4904 16.0771 32.4574 16.1407Z" fill="#CACACA"/>
<path id="path8" d="M8.67056 19.4907C8.4722 18.9966 8.27812 18.501 8.08226 18.0062C7.82967 17.3709 7.57602 16.7349 7.32129 16.0982C7.30345 16.054 7.26278 16.0187 7.20677 15.9448C6.55853 18.1518 6.41832 20.3458 6.72264 22.5856C6.80587 22.5272 6.8783 22.4548 6.9367 22.3715C7.50003 21.5267 8.05765 20.6783 8.62561 19.8364C8.70624 19.7169 8.72122 19.6181 8.67056 19.4907Z" fill="#CACACA"/>
<path id="path9" d="M18.0849 30.4776H17.6115L17.5872 30.5165C17.6942 30.6014 17.7963 30.6895 17.9044 30.7712C18.5276 31.2414 19.153 31.7077 19.7731 32.1825C19.8748 32.2607 19.9401 32.256 20.036 32.1825C20.7075 31.6684 21.3832 31.1597 22.056 30.6485C22.0959 30.6121 22.1325 30.5722 22.1652 30.5293C22.1136 30.5104 22.0599 30.4975 22.0054 30.4908C20.6987 30.4846 19.3918 30.4802 18.0849 30.4776Z" fill="#CACACA"/>
</g>
</g>
</g>
</g>
</g>
</g>
<defs>
<linearGradient id="paint0_linear_0_1" x1="102" y1="-11" x2="102" y2="49.307" gradientUnits="userSpaceOnUse">
<stop stop-color="#1C1C21"/>
<stop offset="1" stop-color="#2D2C32"/>
</linearGradient>
<clipPath id="clip0_0_1">
<rect width="1440" height="1024" fill="white" transform="translate(-43 -46)"/>
</clipPath>
</defs>
</svg>
