<svg width="27" height="40" viewBox="0 0 27 40" fill="none" xmlns="http://www.w3.org/2000/svg">
<g clip-path="url(#clip0_42_99)">
<path d="M17.636 3.71429C17.636 5.76565 15.9723 7.42857 13.9217 7.42857C11.8711 7.42857 10.2074 5.76565 10.2074 3.71429C10.2074 1.66292 11.8711 0 13.9217 0C15.9723 0 17.636 1.66292 17.636 3.71429ZM13.3026 27.2381V37.1429C13.3026 38.5125 12.1961 39.619 10.8264 39.619C9.4568 39.619 8.35025 38.5125 8.35025 37.1429V19.8792L6.13948 23.5625C5.43531 24.731 3.914 25.1101 2.74168 24.406C1.56936 23.7018 1.19012 22.1851 1.89459 21.0089L6.40412 13.5107C7.74668 11.2744 10.161 9.90476 12.7687 9.90476H15.0747C17.6824 9.90476 20.0967 11.2744 21.4431 13.5107L25.9467 21.0089C26.6508 22.1851 26.2717 23.7018 25.1032 24.406C23.927 25.1101 22.4104 24.731 21.7062 23.5625L19.4931 19.8792V37.1429C19.4931 38.5125 18.3866 39.619 17.0169 39.619C15.6473 39.619 14.5407 38.5125 14.5407 37.1429V27.2381H13.3026Z" fill="#F1A33B"/>
</g>
<defs>
<clipPath id="clip0_42_99">
<rect width="26" height="40" fill="white" transform="translate(0.789062)"/>
</clipPath>
</defs>
</svg>
