<svg width="26" height="25" viewBox="0 0 26 25" fill="current" xmlns="http://www.w3.org/2000/svg">
<path d="M23.8632 11.0714H14.3581V1.42857C14.3581 0.638572 13.7287 0 12.95 0C12.1713 0 11.5418 0.638572 11.5418 1.42857V11.0714H2.0367C1.25799 11.0714 0.62854 11.71 0.62854 12.5C0.62854 13.29 1.25799 13.9286 2.0367 13.9286H11.5418V23.5714C11.5418 24.3614 12.1713 25 12.95 25C13.7287 25 14.3581 24.3614 14.3581 23.5714V13.9286H23.8632C24.6419 13.9286 25.2714 13.29 25.2714 12.5C25.2714 11.71 24.6419 11.0714 23.8632 11.0714Z" fill="#A59557"/>
</svg>
