<svg width="34" height="33" viewBox="0 0 34 33" fill="none" xmlns="http://www.w3.org/2000/svg">
<g filter="url(#filter0_d_169_1063)">
<rect x="4.78906" width="25" height="25" rx="12.5" fill="#A7A7A7"/>
<path d="M11.8571 9C11.3837 9 11 9.38376 11 9.85714C11 10.3305 11.3837 10.7143 11.8571 10.7143C12.3305 10.7143 12.7143 10.3305 12.7143 9.85714C12.7143 9.38376 12.3305 9 11.8571 9Z" fill="#302E34"/>
<path d="M11.8571 12.4286C11.3837 12.4286 11 12.8123 11 13.2857C11 13.7591 11.3837 14.1429 11.8571 14.1429C12.3305 14.1429 12.7143 13.7591 12.7143 13.2857C12.7143 12.8123 12.3305 12.4286 11.8571 12.4286Z" fill="#302E34"/>
<path d="M11 16.7143C11 16.2409 11.3837 15.8571 11.8571 15.8571C12.3305 15.8571 12.7143 16.2409 12.7143 16.7143C12.7143 17.1877 12.3305 17.5714 11.8571 17.5714C11.3837 17.5714 11 17.1877 11 16.7143Z" fill="#302E34"/>
<path d="M14.7714 9.20571C14.3927 9.20571 14.0857 9.51271 14.0857 9.89142C14.0857 10.2701 14.3927 10.5771 14.7714 10.5771H22.3143C22.693 10.5771 23 10.2701 23 9.89142C23 9.51271 22.693 9.20571 22.3143 9.20571H14.7714Z" fill="#302E34"/>
<path d="M14.0857 13.32C14.0857 12.9413 14.3927 12.6343 14.7714 12.6343H22.3143C22.693 12.6343 23 12.9413 23 13.32C23 13.6987 22.693 14.0057 22.3143 14.0057H14.7714C14.3927 14.0057 14.0857 13.6987 14.0857 13.32Z" fill="#302E34"/>
<path d="M14.7714 16.0628C14.3927 16.0628 14.0857 16.3699 14.0857 16.7486C14.0857 17.1273 14.3927 17.4343 14.7714 17.4343H22.3143C22.693 17.4343 23 17.1273 23 16.7486C23 16.3699 22.693 16.0628 22.3143 16.0628H14.7714Z" fill="#302E34"/>
</g>
<defs>
<filter id="filter0_d_169_1063" x="0.789062" y="0" width="33" height="33" filterUnits="userSpaceOnUse" color-interpolation-filters="sRGB">
<feFlood flood-opacity="0" result="BackgroundImageFix"/>
<feColorMatrix in="SourceAlpha" type="matrix" values="0 0 0 0 0 0 0 0 0 0 0 0 0 0 0 0 0 0 127 0" result="hardAlpha"/>
<feOffset dy="4"/>
<feGaussianBlur stdDeviation="2"/>
<feComposite in2="hardAlpha" operator="out"/>
<feColorMatrix type="matrix" values="0 0 0 0 0 0 0 0 0 0 0 0 0 0 0 0 0 0 0.25 0"/>
<feBlend mode="normal" in2="BackgroundImageFix" result="effect1_dropShadow_169_1063"/>
<feBlend mode="normal" in="SourceGraphic" in2="effect1_dropShadow_169_1063" result="shape"/>
</filter>
</defs>
</svg>
