<svg width="15" height="25" viewBox="0 0 15 25" fill="none" xmlns="http://www.w3.org/2000/svg">
<path d="M3.68174 24.9111C4.58408 24.9111 5.14267 24.4062 5.13193 23.5254L4.91709 11.4619C4.91709 11.0859 5.07822 10.8066 5.41123 10.6562C6.8292 10.0332 7.4415 9.37793 7.36631 7.49805L7.06553 0.902344C7.04404 0.429688 6.76474 0.161133 6.32431 0.161133C5.90537 0.161133 5.64756 0.44043 5.64756 0.923828L5.72275 7.33691C5.72275 7.71289 5.48642 7.94922 5.13193 7.94922C4.7667 7.94922 4.50888 7.72363 4.50888 7.36914L4.40146 0.730469C4.39072 0.268555 4.12217 0 3.68174 0C3.24131 0 2.98349 0.268555 2.97275 0.730469L2.86533 7.36914C2.86533 7.72363 2.60752 7.94922 2.24228 7.94922C1.88779 7.94922 1.64072 7.71289 1.64072 7.33691L1.71592 0.923828C1.71592 0.44043 1.46885 0.161133 1.03916 0.161133C0.598728 0.161133 0.319431 0.429688 0.297947 0.902344L0.00790784 7.49805C-0.0780297 9.37793 0.534275 10.0332 1.95224 10.6562C2.28525 10.8066 2.44638 11.0859 2.44638 11.4619L2.24228 23.5254C2.23154 24.4062 2.77939 24.9111 3.68174 24.9111ZM12.0821 15.5439L11.8565 23.4717C11.8243 24.4062 12.3937 24.9111 13.2853 24.9111C14.1983 24.9111 14.7569 24.4492 14.7569 23.5898V0.805664C14.7569 0.257812 14.381 0 13.9942 0C13.586 0 13.3175 0.214844 12.9737 0.719727C11.2442 3.14746 10.1056 7.69141 10.1056 11.9883V12.5146C10.1056 13.2559 10.3741 13.8037 10.9112 14.1582L11.545 14.5879C11.9317 14.8564 12.1036 15.1572 12.0821 15.5439Z" fill="#05CD99"/>
</svg>
