<svg width="36" height="36" viewBox="0 0 36 36" fill="none" xmlns="http://www.w3.org/2000/svg">
<g clip-path="url(#clip0_43_159)">
<path d="M31.7614 11.13C31.7295 11.0758 31.6974 11.0225 31.665 10.97C30.1737 8.55498 27.2863 7.32286 24.4797 7.90373C23.8368 8.03679 22.8808 8.30839 21.9773 8.84667C21.0648 9.39021 20.426 10.074 20.0784 10.879C19.5024 12.2133 19.7556 13.802 20.831 15.6014C22.2939 18.0496 21.9419 20.5683 21.6308 22.7904C21.4426 24.1357 21.28 25.2976 21.5303 26.2875C21.8174 27.4221 22.6364 28.1547 24.0347 28.5273C24.2826 28.5937 24.5379 28.6273 24.7942 28.6275C26.121 28.6275 27.4865 27.7255 28.7857 25.9778C31.7269 22.0216 33.6776 14.3931 31.7614 11.13Z" fill="#3A82F7"/>
<path d="M21.5447 7.67973C21.6654 7.67974 21.7858 7.66838 21.9043 7.64579C22.5371 7.52541 23.07 7.10551 23.4049 6.46354C23.7262 5.84783 23.8264 5.096 23.6874 4.34667C23.3949 2.77028 22.119 1.68556 20.8436 1.92806C20.2109 2.04845 19.678 2.46835 19.3431 3.11032C19.0218 3.72603 18.9215 4.47786 19.0607 5.22719C19.3254 6.65507 20.3971 7.67973 21.5447 7.67973Z" fill="#3A82F7"/>
<path d="M25.9353 6.91218C25.9757 6.91513 26.0158 6.91661 26.0558 6.91661C27.0743 6.91661 27.9514 5.96765 28.0394 4.73912C28.0884 4.15457 27.9365 3.5708 27.6094 3.08676C27.2744 2.60639 26.7974 2.32031 26.2668 2.28139C25.1982 2.20249 24.2542 3.17777 24.1628 4.45444C24.1137 5.03896 24.2656 5.62269 24.5927 6.10674C24.9279 6.58731 25.4047 6.87318 25.9353 6.91218Z" fill="#3A82F7"/>
<path d="M29.7005 7.25317C29.7304 7.25539 29.7603 7.25647 29.7899 7.25643C30.5364 7.25643 31.1788 6.56923 31.2425 5.67901C31.2775 5.25772 31.1676 4.83713 30.9316 4.48852C30.821 4.32073 30.6744 4.18037 30.5029 4.07786C30.3314 3.97535 30.1392 3.91334 29.9408 3.89642C29.1572 3.83907 28.465 4.54497 28.3987 5.47051C28.3637 5.89194 28.4735 6.31269 28.7096 6.66142C28.8203 6.82914 28.9669 6.96943 29.1384 7.07187C29.31 7.17432 29.5021 7.23629 29.7005 7.25317Z" fill="#3A82F7"/>
<path d="M31.0509 8.26087C31.1077 8.43114 31.2016 8.58626 31.3257 8.71467C31.4498 8.84309 31.6009 8.9415 31.7677 9.00258C31.8851 9.04408 32.0086 9.06516 32.1329 9.06493C32.6849 9.06493 33.2295 8.65528 33.4481 8.02183C33.5735 7.67143 33.5754 7.28787 33.4535 6.9362C33.3967 6.76593 33.3028 6.61081 33.1787 6.48239C33.0546 6.35396 32.9036 6.25554 32.7368 6.19442C32.0773 5.96099 31.3236 6.40091 31.0563 7.17497C30.9309 7.52546 30.929 7.90913 31.0509 8.26087Z" fill="#3A82F7"/>
<path d="M34.6247 9.07323C34.0887 8.61953 33.2301 8.76208 32.7106 9.3911C32.4714 9.67423 32.3362 10.0324 32.3278 10.405C32.3217 10.5847 32.3556 10.7634 32.427 10.9279C32.4985 11.0924 32.6057 11.2384 32.7405 11.3552C32.9502 11.5301 33.2142 11.6241 33.4857 11.6205C33.7106 11.615 33.9317 11.5601 34.1335 11.4594C34.3354 11.3587 34.5132 11.2146 34.6546 11.0373C34.8939 10.7542 35.0291 10.3959 35.0374 10.0232C35.0436 9.84363 35.0096 9.66493 34.9382 9.50045C34.8667 9.33597 34.7595 9.18994 34.6247 9.07323Z" fill="#3A82F7"/>
<path d="M11.1308 14.2581C8.27673 14.5068 5.85271 16.5175 5.09891 19.2616C5.08251 19.3213 5.06656 19.3817 5.05106 19.4428C4.16116 22.9872 7.3895 28.8571 10.8706 31.7378C12.334 32.9486 13.756 33.5711 15.0092 33.571C15.5247 33.5751 16.0344 33.4599 16.4994 33.2342C17.8207 32.5869 18.4626 31.7753 18.5198 30.6802C18.5695 29.7288 18.1681 28.6978 17.7033 27.5041C16.9408 25.5457 16.0764 23.3259 16.7853 20.5925C17.3127 18.5586 17.1107 16.9623 16.1848 15.8481C15.6262 15.1759 14.8221 14.7036 13.7948 14.4442C12.7774 14.187 11.7846 14.201 11.1308 14.2581ZM6.38673 21.7014C6.37252 21.6175 6.35955 21.534 6.34784 21.451C6.33502 21.36 6.35838 21.2677 6.41277 21.1942C6.46717 21.1207 6.54814 21.0721 6.63789 21.0591C6.72763 21.0461 6.81879 21.0698 6.89131 21.1249C6.96383 21.18 7.01178 21.2621 7.0246 21.353C7.0354 21.4296 7.04738 21.5067 7.06055 21.5842C7.06815 21.6291 7.06695 21.675 7.05704 21.7193C7.04713 21.7637 7.02869 21.8056 7.00278 21.8428C6.97687 21.8799 6.94399 21.9115 6.90602 21.9358C6.86806 21.96 6.82575 21.9765 6.78151 21.9842C6.73727 21.9919 6.69197 21.9907 6.64819 21.9806C6.60441 21.9706 6.56302 21.9519 6.52636 21.9256C6.48971 21.8994 6.45852 21.8661 6.43458 21.8276C6.41063 21.7891 6.3944 21.7463 6.3868 21.7014H6.38673ZM8.93107 27.0096C8.8928 27.0334 8.85028 27.0493 8.80595 27.0564C8.76162 27.0635 8.71634 27.0617 8.67269 27.0511C8.62904 27.0405 8.58788 27.0213 8.55157 26.9945C8.51525 26.9678 8.48449 26.9341 8.46103 26.8953C7.66861 25.5855 7.05392 24.228 6.68369 22.9697C6.67085 22.9261 6.66662 22.8804 6.67122 22.8352C6.67583 22.7899 6.68918 22.746 6.71052 22.706C6.75362 22.6252 6.82664 22.5651 6.91351 22.5388C7.00038 22.5125 7.09399 22.5223 7.17374 22.566C7.25349 22.6097 7.31286 22.6837 7.33878 22.7717C7.69253 23.9733 8.28213 25.274 9.04407 26.5333C9.06753 26.5721 9.08321 26.6152 9.09023 26.6601C9.09725 26.7051 9.09546 26.751 9.08496 26.7952C9.07447 26.8394 9.05548 26.8811 9.02907 26.9179C9.00267 26.9547 8.96936 26.9859 8.93107 27.0097V27.0096Z" fill="#3A82F7"/>
<path d="M13.33 13.2815C13.3962 13.2815 13.4624 13.2781 13.5282 13.2713C14.1686 13.2051 14.7344 12.8319 15.1213 12.2207C15.4924 11.6345 15.6545 10.8938 15.5782 10.1353C15.4173 8.53973 14.2365 7.34986 12.9446 7.48362C12.3042 7.54984 11.7384 7.92291 11.3515 8.53419C10.9804 9.12047 10.8183 9.86107 10.8946 10.6196C11.047 12.1333 12.118 13.2816 13.33 13.2815Z" fill="#3A82F7"/>
<path d="M8.86746 13.8332C9.06879 13.8335 9.26852 13.7969 9.45699 13.7252C9.95492 13.5354 10.332 13.1243 10.519 12.5672C10.6971 12.0091 10.6793 11.4057 10.4686 10.8593C10.0234 9.66132 8.84545 8.99753 7.84255 9.37961C7.34462 9.56926 6.96755 9.9805 6.78052 10.5375C6.60236 11.0957 6.62016 11.6991 6.8309 12.2455C7.19081 13.2139 8.02951 13.8332 8.86746 13.8332Z" fill="#3A82F7"/>
<path d="M5.50474 15.2134C5.65401 15.2136 5.80209 15.1864 5.94183 15.1332C6.12739 15.06 6.29428 14.9454 6.43009 14.7978C6.56589 14.6502 6.66713 14.4736 6.72625 14.2809C6.85503 13.8786 6.84254 13.4435 6.69091 13.0495C6.36826 12.181 5.50713 11.7024 4.77152 11.9828C4.58594 12.056 4.41904 12.1707 4.28323 12.3182C4.14741 12.4658 4.04617 12.6425 3.98702 12.8352C3.85828 13.2375 3.87077 13.6725 4.02237 14.0665C4.28254 14.7667 4.89258 15.2134 5.50474 15.2134Z" fill="#3A82F7"/>
<path d="M3.78017 17.6176C4.01986 17.6199 4.25412 17.5453 4.44934 17.4044C4.59223 17.2979 4.70957 17.1601 4.79263 17.0013C4.87569 16.8425 4.92234 16.6667 4.92909 16.4871C4.94747 16.1149 4.83826 15.7476 4.61997 15.4476C4.14699 14.7822 3.30063 14.5769 2.734 14.9899C2.59112 15.0964 2.47379 15.2342 2.39073 15.393C2.30767 15.5518 2.26102 15.7275 2.25426 15.9071C2.23585 16.2794 2.34509 16.6467 2.56345 16.9466C2.87106 17.3795 3.33638 17.6177 3.78017 17.6176Z" fill="#3A82F7"/>
<path d="M2.25087 20.1845C2.51418 20.3645 2.82398 20.4619 3.14159 20.4645C3.56029 20.4645 3.94905 20.284 4.17505 19.9398C4.27175 19.7891 4.33365 19.6182 4.35613 19.4399C4.3786 19.2616 4.36108 19.0804 4.30486 18.91C4.19249 18.555 3.96249 18.2503 3.65381 18.0476C2.97958 17.5936 2.1164 17.7034 1.72956 18.2923C1.63289 18.443 1.57101 18.6138 1.54852 18.7921C1.52603 18.9704 1.54352 19.1515 1.59968 19.322C1.71204 19.677 1.94205 19.9816 2.25073 20.1844L2.25087 20.1845Z" fill="#3A82F7"/>
</g>
<defs>
<clipPath id="clip0_43_159">
<rect width="35" height="35.4648" fill="white" transform="translate(0.789062)"/>
</clipPath>
</defs>
</svg>
