<svg width="17" height="25" viewBox="0 0 17 25" fill="current" xmlns="http://www.w3.org/2000/svg">
<path fill-rule="evenodd" clip-rule="evenodd" d="M13.4609 14.0826C15.2611 12.6212 16.4062 10.424 16.4062 7.96703C16.4062 3.56695 12.7336 0 8.20312 0C3.67265 0 0 3.56695 0 7.96703C0 10.1721 0.922371 12.1679 2.41282 13.6104C2.50489 13.7049 2.64885 13.8448 2.84578 14.0133C3.701 14.7454 5.20412 16.1388 5.37446 17.5399V19.0939C5.37446 19.6251 5.81856 20.0549 6.36636 20.0549H10.0399C10.5879 20.0549 11.0318 19.6247 11.0318 19.0939V17.466C11.2325 16.1353 12.6083 14.8207 13.4609 14.0826ZM5.37446 21.1538C5.37446 20.8504 5.61756 20.6044 5.91179 20.6044H10.4945C10.7912 20.6044 11.0318 20.8483 11.0318 21.1538C11.0318 21.4573 10.7887 21.7033 10.4945 21.7033H5.91179C5.61504 21.7033 5.37446 21.4594 5.37446 21.1538ZM5.94019 22.8022C5.94019 22.4987 6.19322 22.2527 6.50426 22.2527H9.90199C10.2135 22.2527 10.4661 22.4966 10.4661 22.8022C10.4661 23.1058 10.213 23.3517 9.90199 23.3517H6.50426C6.19274 23.3517 5.94019 23.1077 5.94019 22.8022ZM6.50593 24.4506C6.50593 24.147 6.76107 23.9011 7.07406 23.9011H9.33219C9.64594 23.9011 9.90032 24.1451 9.90032 24.4506C9.90032 24.7541 9.64518 25 9.33219 25H7.07406C6.76031 25 6.50593 24.756 6.50593 24.4506ZM8.76886 10.4396H11.3155C11.6272 10.4396 11.8804 10.1936 11.8804 9.89011C11.8804 9.58453 11.6275 9.34066 11.3155 9.34066H5.09075C4.77903 9.34066 4.52586 9.58665 4.52586 9.89011C4.52586 10.1957 4.77877 10.4396 5.09075 10.4396H7.63739V17.8565C7.63739 18.1594 7.89067 18.4066 8.20312 18.4066C8.51776 18.4066 8.76886 18.1603 8.76886 17.8565V10.4396Z" fill="#CACACA"/>
</svg>
