<svg width="11" height="15" viewBox="0 0 11 15" fill="none" xmlns="http://www.w3.org/2000/svg">
<path d="M5.09961 0.429688C2.28025 0.429688 0 2.70994 0 5.5293C0 9.354 5.09961 15 5.09961 15C5.09961 15 10.1992 9.354 10.1992 5.5293C10.1992 2.70994 7.91896 0.429688 5.09961 0.429688ZM1.45703 5.5293C1.45703 3.51859 3.08891 1.88672 5.09961 1.88672C7.11031 1.88672 8.74219 3.51859 8.74219 5.5293C8.74219 7.62742 6.64406 10.7673 5.09961 12.727C3.5843 10.7819 1.45703 7.60557 1.45703 5.5293Z" fill="#A7A7A7"/>
<path d="M5.09985 7.34999C6.10572 7.34999 6.92114 6.53458 6.92114 5.52871C6.92114 4.52284 6.10572 3.70742 5.09985 3.70742C4.09398 3.70742 3.27856 4.52284 3.27856 5.52871C3.27856 6.53458 4.09398 7.34999 5.09985 7.34999Z" fill="#A7A7A7"/>
</svg>
