<svg width="31" height="30" viewBox="0 0 31 30" fill="none" xmlns="http://www.w3.org/2000/svg">
<g clip-path="url(#clip0_58_625)">
<path d="M8.28906 12.5C6.91406 12.5 5.78906 13.625 5.78906 15C5.78906 16.375 6.91406 17.5 8.28906 17.5C9.66406 17.5 10.7891 16.375 10.7891 15C10.7891 13.625 9.66406 12.5 8.28906 12.5ZM23.2891 12.5C21.9141 12.5 20.7891 13.625 20.7891 15C20.7891 16.375 21.9141 17.5 23.2891 17.5C24.6641 17.5 25.7891 16.375 25.7891 15C25.7891 13.625 24.6641 12.5 23.2891 12.5ZM15.7891 12.5C14.4141 12.5 13.2891 13.625 13.2891 15C13.2891 16.375 14.4141 17.5 15.7891 17.5C17.1641 17.5 18.2891 16.375 18.2891 15C18.2891 13.625 17.1641 12.5 15.7891 12.5Z" fill="#A7A7A7"/>
</g>
<defs>
<clipPath id="clip0_58_625">
<rect width="30" height="30" fill="white" transform="translate(0.789062)"/>
</clipPath>
</defs>
</svg>
