<svg width="15" height="15" viewBox="0 0 15 15" fill="none" xmlns="http://www.w3.org/2000/svg">
<path d="M5.93949 1.77213L0.58418 12.4765C0.166149 13.3121 -0.0428663 13.7299 0.007339 14.0695C0.0511785 14.366 0.215304 14.6314 0.461093 14.8032C0.742573 15 1.20995 15 2.14469 15H12.8553C13.7901 15 14.2574 15 14.5389 14.8032C14.7847 14.6314 14.9488 14.366 14.9927 14.0695C15.0429 13.7299 14.8339 13.3121 14.4158 12.4765L9.06051 1.77213C8.55825 0.768186 8.30711 0.266214 7.96728 0.105132C7.67155 -0.0350444 7.32845 -0.0350444 7.03272 0.105132C6.69289 0.266214 6.44175 0.768186 5.93949 1.77213Z" fill="#EB4B62"/>
</svg>
